<svg width="18" height="19" viewBox="0 0 18 19" fill="none" xmlns="http://www.w3.org/2000/svg">
<path d="M8.98828 9.1594e-05C8.78954 0.0031965 8.60016 0.085059 8.46173 0.227698C8.3233 0.370337 8.24715 0.562088 8.25 0.760834V11.4503L6.53027 9.73056C6.46036 9.65857 6.37672 9.60133 6.28429 9.56225C6.19187 9.52317 6.09254 9.50303 5.99219 9.50302C5.84293 9.50306 5.69707 9.54762 5.57328 9.63102C5.44949 9.71442 5.3534 9.83285 5.2973 9.97117C5.24119 10.1095 5.22763 10.2614 5.25835 10.4075C5.28907 10.5535 5.36267 10.6871 5.46973 10.7911L8.46973 13.7911C8.61038 13.9317 8.80112 14.0107 9 14.0107C9.19888 14.0107 9.38962 13.9317 9.53027 13.7911L12.5303 10.7911C12.6023 10.722 12.6597 10.6392 12.6993 10.5476C12.7389 10.456 12.7598 10.3575 12.7608 10.2577C12.7618 10.1579 12.7429 10.0589 12.7052 9.96654C12.6675 9.87415 12.6117 9.79023 12.5412 9.71967C12.4706 9.64911 12.3867 9.59334 12.2943 9.55562C12.2019 9.51791 12.1029 9.499 12.0032 9.50001C11.9034 9.50103 11.8048 9.52194 11.7132 9.56153C11.6216 9.60112 11.5388 9.65858 11.4697 9.73056L9.75 11.4503V0.760834C9.75144 0.660451 9.73271 0.5608 9.69493 0.467788C9.65715 0.374776 9.60108 0.290295 9.53004 0.219352C9.45901 0.148409 9.37446 0.0924472 9.2814 0.0547841C9.18834 0.017121 9.08866 -0.00147722 8.98828 9.1594e-05ZM2.75 5.51083C1.24011 5.51083 0 6.75095 0 8.26083V15.2608C0 16.7707 1.24011 18.0108 2.75 18.0108H15.25C16.7599 18.0108 18 16.7707 18 15.2608V8.26083C18 6.75095 16.7599 5.51083 15.25 5.51083H12.25C12.1506 5.50943 12.0519 5.52779 11.9597 5.56485C11.8675 5.60191 11.7836 5.65693 11.7128 5.72671C11.642 5.7965 11.5858 5.87965 11.5474 5.97134C11.5091 6.06304 11.4893 6.16144 11.4893 6.26083C11.4893 6.36023 11.5091 6.45863 11.5474 6.55032C11.5858 6.64202 11.642 6.72517 11.7128 6.79495C11.7836 6.86474 11.8675 6.91976 11.9597 6.95682C12.0519 6.99388 12.1506 7.01224 12.25 7.01083H15.25C15.9491 7.01083 16.5 7.56172 16.5 8.26083V15.2608C16.5 15.9599 15.9491 16.5108 15.25 16.5108H2.75C2.05089 16.5108 1.5 15.9599 1.5 15.2608V8.26083C1.5 7.56172 2.05089 7.01083 2.75 7.01083H5.75C5.84938 7.01224 5.94806 6.99388 6.04028 6.95682C6.13251 6.91976 6.21645 6.86474 6.28723 6.79495C6.358 6.72517 6.41421 6.64202 6.45257 6.55032C6.49093 6.45863 6.51068 6.36023 6.51068 6.26083C6.51068 6.16144 6.49093 6.06304 6.45257 5.97134C6.41421 5.87965 6.358 5.7965 6.28723 5.72671C6.21645 5.65693 6.13251 5.60191 6.04028 5.56485C5.94806 5.52779 5.84938 5.50943 5.75 5.51083H2.75Z" fill="#666680"/>
</svg>
