<svg width="64" height="64" viewBox="0 0 64 64" fill="none" xmlns="http://www.w3.org/2000/svg">
<circle cx="32" cy="32" r="32" fill="white"/>
<path d="M32.7312 47.4951L26.4349 41.8056L24.4541 43.7484L32.7312 51.3113L41.0083 43.679L39.0274 41.7362L32.7312 47.4951Z" fill="#000033"/>
<path d="M32.6602 32.1612L18.0869 19.0475L18.2284 35.561C18.2284 37.1569 18.9358 38.6833 20.0678 39.7241L22.8975 42.2913L24.8784 40.3485L22.0486 37.7119C21.4119 37.1569 21.0582 36.3242 21.0582 35.4916L20.9874 25.4309L32.6602 35.9773L44.4038 25.4309L44.333 35.561C44.333 36.3936 43.9793 37.1569 43.3426 37.7813L40.5129 40.3485L42.4937 42.2913L45.2527 39.7241C46.4554 38.6139 47.0921 37.0875 47.1628 35.561L47.3043 19.0475L32.6602 32.1612Z" fill="#000033"/>
<path d="M32.7309 17.6598L38.9564 23.28L41.0787 21.4066L32.7309 13.9131L24.3831 21.4066L26.4346 23.28L32.7309 17.6598Z" fill="#000033"/>
</svg>
