<svg width="12" height="12" viewBox="0 0 12 12" fill="none" xmlns="http://www.w3.org/2000/svg">
<path d="M6 10.5C3.51472 10.5 1.5 8.48527 1.5 6C1.5 3.51472 3.51472 1.5 6 1.5C8.48527 1.5 10.5 3.51472 10.5 6C10.5 8.48527 8.48527 10.5 6 10.5ZM6 9.75C8.07105 9.75 9.75 8.07105 9.75 6C9.75 3.92895 8.07105 2.25 6 2.25C3.92895 2.25 2.25 3.92895 2.25 6C2.25 8.07105 3.92895 9.75 6 9.75ZM6 7.5C5.17155 7.5 4.5 6.82843 4.5 6C4.5 5.17157 5.17157 4.5 6 4.5C6.82843 4.5 7.5 5.17157 7.5 6C7.5 6.82843 6.82843 7.5 6 7.5Z" fill="#BA1A1A"/>
</svg>
