<svg width="390" height="268" viewBox="0 0 390 268" fill="none" xmlns="http://www.w3.org/2000/svg">
<g filter="url(#filter0_b_1_2333)">
<path d="M390 204C390 234.17 390 249.255 380.627 258.627C371.255 268 356.17 268 326 268L64 268C33.8301 268 18.7452 268 9.37262 258.627C2.88788e-05 249.255 2.75601e-05 234.17 2.49225e-05 204L1.26833e-05 64C1.00458e-05 33.8301 8.72703e-06 18.7452 9.3726 9.37259C18.7452 1.93855e-06 33.8301 6.1978e-07 64 -2.01776e-06L326 -2.49225e-05C356.17 -2.75601e-05 371.255 -2.88788e-05 380.627 9.37256C390 18.7451 390 33.8301 390 64L390 204Z" fill="#4E4E61" fill-opacity="0.3"/>
<path d="M389.5 204C389.5 219.099 389.499 230.373 388.333 239.046C387.169 247.705 384.852 253.696 380.274 258.274C375.696 262.852 369.705 265.169 361.046 266.333C352.373 267.499 341.099 267.5 326 267.5L64 267.5C48.9009 267.5 37.6269 267.499 28.9539 266.333C20.2953 265.169 14.3041 262.852 9.72616 258.274C5.14825 253.696 2.83127 247.705 1.66714 239.046C0.501095 230.373 0.500026 219.099 0.500025 204L0.500013 64C0.500011 48.9009 0.501078 37.6269 1.66712 28.9539C2.83125 20.2953 5.14823 14.304 9.72614 9.72614C14.3041 5.14823 20.2953 2.83124 28.9539 1.66712C37.6269 0.501068 48.9009 0.499999 64 0.499998L326 0.499975C341.099 0.499974 352.373 0.501041 361.046 1.66709C369.705 2.83121 375.696 5.14819 380.274 9.72611C384.852 14.304 387.169 20.2953 388.333 28.9539C389.499 37.6269 389.5 48.9009 389.5 64L389.5 204Z" stroke="url(#paint0_linear_1_2333)" stroke-opacity="0.2"/>
</g>
<defs>
<filter id="filter0_b_1_2333" x="-20" y="-20" width="430" height="308" filterUnits="userSpaceOnUse" color-interpolation-filters="sRGB">
<feFlood flood-opacity="0" result="BackgroundImageFix"/>
<feGaussianBlur in="BackgroundImageFix" stdDeviation="10"/>
<feComposite in2="SourceAlpha" operator="in" result="effect1_backgroundBlur_1_2333"/>
<feBlend mode="normal" in="SourceGraphic" in2="effect1_backgroundBlur_1_2333" result="shape"/>
</filter>
<linearGradient id="paint0_linear_1_2333" x1="390" y1="268" x2="232.637" y2="-99.5904" gradientUnits="userSpaceOnUse">
<stop stop-color="#CFCFFC"/>
<stop offset="1" stop-color="#CFCFFC" stop-opacity="0"/>
</linearGradient>
</defs>
</svg>
