<svg width="22" height="22" viewBox="0 0 22 22" fill="none" xmlns="http://www.w3.org/2000/svg">
<path d="M10.8115 1.37857C10.3336 1.38842 9.84665 1.43904 9.35507 1.53433C5.44482 2.29222 2.71108 5.73279 2.75042 9.70555C2.76945 11.65 3.51743 13.1771 4.71266 14.8385C6.26571 16.9978 8.35024 18.9797 9.56723 20.0682C10.3786 20.7931 11.6198 20.7934 12.4309 20.0682C13.6485 18.9796 15.7333 16.9978 17.2864 14.8385C18.4981 13.154 19.2495 11.6066 19.2495 9.62499C19.2495 5.17391 15.6889 1.54019 11.286 1.38215C11.1287 1.37651 10.9708 1.37529 10.8115 1.37857ZM11.2457 2.75267C14.9492 2.87493 17.8745 5.90123 17.8745 9.62499C17.8745 11.2752 17.3133 12.4485 16.171 14.0364C14.7275 16.0434 12.6938 17.9895 11.5152 19.0432C11.218 19.3089 10.7816 19.3092 10.4839 19.0432C9.30564 17.9894 7.27159 16.0434 5.82806 14.0364C4.70137 12.4703 4.14032 11.3062 4.12452 9.69213C4.09145 6.35265 6.34829 3.51788 9.61736 2.88427C10.1719 2.77677 10.7166 2.73521 11.2457 2.75267ZM10.3443 5.49999C10.0381 5.49999 9.7516 5.6529 9.58156 5.90819L8.93702 6.87499H7.79119C7.28473 6.87499 6.87452 7.2852 6.87452 7.79166V11.4583C6.87452 11.9648 7.28473 12.375 7.79119 12.375H14.2079C14.7143 12.375 15.1245 11.9648 15.1245 11.4583V7.79166C15.1245 7.2852 14.7143 6.87499 14.2079 6.87499H13.062L12.4175 5.90819C12.2475 5.6529 11.9614 5.49999 11.6548 5.49999H10.3443ZM10.9995 8.24999C11.759 8.24999 12.3745 8.86553 12.3745 9.62499C12.3745 10.3844 11.759 11 10.9995 11C10.2401 11 9.62452 10.3844 9.62452 9.62499C9.62452 8.86553 10.2401 8.24999 10.9995 8.24999Z" fill="#D9D9FF"/>
</svg>
