<svg width="22" height="22" viewBox="0 0 22 22" fill="none" xmlns="http://www.w3.org/2000/svg">
<path d="M16.4997 0.916672C16.2306 0.916672 15.9672 0.939374 15.7101 0.982915L15.5517 1.63908C15.3056 2.65842 14.2562 3.26453 13.2502 2.96753L12.6978 2.80372C12.366 3.2318 12.1001 3.71746 11.9163 4.24317L12.3263 4.63705C13.0757 5.35847 13.0757 6.55821 12.3263 7.27963L11.9163 7.67351C12.1001 8.19922 12.3655 8.68488 12.6978 9.11296L13.2502 8.94914C14.2562 8.65168 15.3056 9.2578 15.5517 10.2776L15.7101 10.9338C15.9672 10.9773 16.2311 11 16.4997 11C16.7687 11 17.0321 10.9773 17.2892 10.9338L17.4477 10.2776C17.6938 9.2578 18.7431 8.65168 19.7492 8.94914L20.3015 9.11296C20.6333 8.68534 20.8992 8.19922 21.083 7.67351L20.673 7.27963C19.9236 6.55867 19.9236 5.35801 20.673 4.63705L21.083 4.24317C20.8992 3.71746 20.6338 3.2318 20.3015 2.80372L19.7492 2.96753C18.7431 3.26499 17.6938 2.65888 17.4477 1.63908L17.2892 0.982915C17.0321 0.939374 16.7687 0.916672 16.4997 0.916672ZM3.89551 2.29167C2.75838 2.29167 1.83301 3.21705 1.83301 4.35417V13.9792C1.83301 15.1163 2.75838 16.0417 3.89551 16.0417H7.79134V18.3333H6.18717C6.09607 18.3321 6.00562 18.3489 5.92108 18.3829C5.83654 18.4168 5.7596 18.4673 5.69472 18.5312C5.62984 18.5952 5.57832 18.6714 5.54316 18.7555C5.50799 18.8395 5.48988 18.9297 5.48988 19.0208C5.48988 19.1119 5.50799 19.2022 5.54316 19.2862C5.57832 19.3703 5.62984 19.4465 5.69472 19.5104C5.7596 19.5744 5.83654 19.6249 5.92108 19.6588C6.00562 19.6928 6.09607 19.7096 6.18717 19.7083H8.36605C8.43985 19.7205 8.51514 19.7205 8.58895 19.7083H13.4077C13.4815 19.7205 13.5568 19.7205 13.6306 19.7083H15.8122C15.9033 19.7096 15.9937 19.6928 16.0783 19.6588C16.1628 19.6249 16.2398 19.5744 16.3046 19.5104C16.3695 19.4465 16.421 19.3703 16.4562 19.2862C16.4914 19.2022 16.5095 19.1119 16.5095 19.0208C16.5095 18.9297 16.4914 18.8395 16.4562 18.7555C16.421 18.6714 16.3695 18.5952 16.3046 18.5312C16.2398 18.4673 16.1628 18.4168 16.0783 18.3829C15.9937 18.3489 15.9033 18.3321 15.8122 18.3333H14.208V16.0417H18.1038C19.241 16.0417 20.1663 15.1163 20.1663 13.9792V10.6482C19.7483 10.9754 19.2882 11.2512 18.7913 11.4583V13.9792C18.7913 14.3582 18.4829 14.6667 18.1038 14.6667H13.6333C13.5595 14.6545 13.4842 14.6545 13.4104 14.6667H8.59163C8.55084 14.6597 8.50949 14.6564 8.4681 14.6568C8.43448 14.6577 8.40097 14.6609 8.36784 14.6667H3.89551C3.51647 14.6667 3.20801 14.3582 3.20801 13.9792V4.35417C3.20801 3.97513 3.51647 3.66667 3.89551 3.66667H10.9997C11.2068 3.16984 11.4826 2.70967 11.8098 2.29167H3.89551ZM16.4997 4.58334C17.2591 4.58334 17.8747 5.19888 17.8747 5.95834C17.8747 6.7178 17.2591 7.33334 16.4997 7.33334C15.7402 7.33334 15.1247 6.7178 15.1247 5.95834C15.1247 5.19888 15.7402 4.58334 16.4997 4.58334ZM9.16634 16.0417H12.833V18.3333H9.16634V16.0417Z" fill="#D9D9FF"/>
</svg>
