<svg width="22" height="22" viewBox="0 0 22 22" fill="none" xmlns="http://www.w3.org/2000/svg">
<path d="M15.3491 0.910403C15.1941 0.913274 15.0445 0.968481 14.9248 1.06706L10.7864 4.37834L8.01042 1.99894C7.94203 1.93915 7.86246 1.89351 7.77633 1.86464C7.69019 1.83578 7.59919 1.82427 7.50858 1.83078C7.41797 1.8373 7.32956 1.8617 7.24843 1.90258C7.16731 1.94346 7.09509 2.00002 7.03595 2.06897C6.97681 2.13793 6.93193 2.21792 6.90388 2.30433C6.87584 2.39073 6.8652 2.48184 6.87257 2.57238C6.87994 2.66292 6.90518 2.75111 6.94683 2.83184C6.98848 2.91257 7.04572 2.98425 7.11523 3.04273L8.91276 4.58334H5.27116C3.63402 4.58334 2.29199 5.92536 2.29199 7.5625V15.8125C2.29199 17.4496 3.63402 18.7917 5.27116 18.7917H16.7295C18.3666 18.7917 19.7087 17.4496 19.7087 15.8125V7.5625C19.7087 5.92536 18.3666 4.58334 16.7295 4.58334H12.7316L15.7842 2.14128C15.8984 2.05272 15.9819 1.9304 16.0226 1.79171C16.0634 1.65301 16.0594 1.505 16.0112 1.3687C15.9631 1.2324 15.8732 1.11476 15.7543 1.03248C15.6354 0.950207 15.4937 0.907491 15.3491 0.910403ZM5.27116 5.95834H10.7649H16.7295C17.6233 5.95834 18.3337 6.66872 18.3337 7.5625V15.8125C18.3337 16.7063 17.6233 17.4167 16.7295 17.4167H5.27116C4.37738 17.4167 3.66699 16.7063 3.66699 15.8125V7.5625C3.66699 6.66872 4.37738 5.95834 5.27116 5.95834ZM16.2712 9.16667C16.0888 9.16667 15.914 9.2391 15.785 9.36803C15.6561 9.49697 15.5837 9.67183 15.5837 9.85417C15.5837 10.0365 15.6561 10.2114 15.785 10.3403C15.914 10.4692 16.0888 10.5417 16.2712 10.5417C16.4535 10.5417 16.6284 10.4692 16.7573 10.3403C16.8862 10.2114 16.9587 10.0365 16.9587 9.85417C16.9587 9.67183 16.8862 9.49697 16.7573 9.36803C16.6284 9.2391 16.4535 9.16667 16.2712 9.16667ZM16.2712 12.375C16.0888 12.375 15.914 12.4474 15.785 12.5764C15.6561 12.7053 15.5837 12.8802 15.5837 13.0625C15.5837 13.2448 15.6561 13.4197 15.785 13.5486C15.914 13.6776 16.0888 13.75 16.2712 13.75C16.4535 13.75 16.6284 13.6776 16.7573 13.5486C16.8862 13.4197 16.9587 13.2448 16.9587 13.0625C16.9587 12.8802 16.8862 12.7053 16.7573 12.5764C16.6284 12.4474 16.4535 12.375 16.2712 12.375Z" fill="#D9D9FF"/>
</svg>
