<svg width="22" height="22" viewBox="0 0 22 22" fill="none" xmlns="http://www.w3.org/2000/svg">
<path d="M8.7417 1.35798C8.56646 1.35334 8.38255 1.35934 8.19564 1.38394C7.82181 1.43313 7.43459 1.55739 7.07577 1.81989C6.45651 2.27292 6.12533 3.14655 6.03019 4.31656C5.6371 4.45388 5.01936 4.69459 4.24878 5.19384C3.13842 5.91322 1.90659 7.1259 1.84522 8.91421C1.81639 9.75695 2.03732 11.1057 2.79769 12.3141C2.64615 12.7424 2.51213 13.2258 2.51213 13.7992C2.51213 15.8474 3.5529 17.0982 4.56836 17.6977C5.15712 18.0453 5.67478 18.1876 6.0651 18.2635C6.19235 19.1032 6.49872 19.792 7.03996 20.1514C7.7151 20.5998 8.47977 20.635 9.15169 20.6411C9.79189 20.6468 10.4099 20.4732 10.891 20.0816C10.9293 20.0505 10.9643 20.0154 11.0002 19.9814C11.0362 20.0154 11.0712 20.0505 11.1095 20.0816C11.5906 20.4732 12.2086 20.6469 12.8488 20.6411C13.5207 20.635 14.2854 20.5998 14.9605 20.1514C15.5018 19.792 15.8081 19.1032 15.9354 18.2635C16.3257 18.1876 16.8434 18.0453 17.4321 17.6977C18.4476 17.0982 19.4884 15.8474 19.4884 13.7992C19.4884 13.2258 19.3544 12.7424 19.2028 12.3141C19.9632 11.1057 20.1841 9.75695 20.1553 8.91421C20.0939 7.1259 18.8621 5.91322 17.7517 5.19384C16.9811 4.69459 16.3634 4.45388 15.9703 4.31656C15.8752 3.14655 15.544 2.27292 14.9247 1.81989C14.5659 1.55739 14.1787 1.43313 13.8049 1.38394C13.431 1.33475 13.0702 1.3602 12.7638 1.39558C12.1604 1.4655 11.5855 1.71591 11.1274 2.11978C11.0817 2.16 11.0434 2.21018 11.0002 2.25406C10.957 2.21018 10.9188 2.16 10.8731 2.11978C10.415 1.71591 9.84009 1.4655 9.23674 1.39558C9.08351 1.37789 8.91694 1.36262 8.7417 1.35798ZM8.72111 2.73656C8.83523 2.73878 8.95475 2.74739 9.07829 2.76162H9.07918C9.39319 2.7982 9.73464 2.94915 9.96362 3.15103C10.1928 3.35308 10.3038 3.57053 10.3038 3.80541V6.41665H8.93685C8.83021 6.27447 8.69195 6.15904 8.53302 6.07949C8.37408 5.99994 8.19881 5.95846 8.02108 5.95832C7.71718 5.95832 7.42574 6.07904 7.21085 6.29393C6.99597 6.50881 6.87525 6.80026 6.87525 7.10415C6.87525 7.40805 6.99597 7.6995 7.21085 7.91438C7.42574 8.12927 7.71718 8.24999 8.02108 8.24999C8.19881 8.24985 8.37408 8.20837 8.53302 8.12882C8.69195 8.04927 8.83021 7.93384 8.93685 7.79165H10.3038V14.425C10.3035 14.4372 10.3035 14.4494 10.3038 14.4617V14.6667H8.93685C8.83021 14.5245 8.69195 14.409 8.53302 14.3295C8.37408 14.2499 8.19881 14.2085 8.02108 14.2083C7.71718 14.2083 7.42574 14.329 7.21085 14.5439C6.99597 14.7588 6.87525 15.0503 6.87525 15.3542C6.87525 15.658 6.99597 15.9495 7.21085 16.1644C7.42574 16.3793 7.71718 16.5 8.02108 16.5C8.19881 16.4998 8.37408 16.4584 8.53302 16.3788C8.69195 16.2993 8.83021 16.1838 8.93685 16.0417H10.3038V18.3709C10.3038 18.6988 10.204 18.8686 10.0236 19.0154C9.84321 19.1623 9.54474 19.2695 9.16423 19.2661C8.56471 19.2607 8.06829 19.1841 7.80086 19.0065C7.53344 18.8289 7.32463 18.5575 7.32463 17.6619C7.32467 17.4864 7.25756 17.3175 7.13706 17.1898C7.01655 17.0621 6.85178 16.9854 6.67651 16.9753C6.67651 16.9753 5.97078 16.9286 5.2675 16.5134C4.56421 16.0982 3.88713 15.4177 3.88713 13.7992C3.88713 13.6237 3.9097 13.456 3.94084 13.2917H5.72941C5.91174 13.2916 6.0866 13.2192 6.21553 13.0903C6.34445 12.9613 6.41689 12.7865 6.41691 12.6042V11.4583H7.10531C7.21195 11.6005 7.3502 11.7159 7.50914 11.7955C7.66808 11.875 7.84334 11.9165 8.02108 11.9167C8.32497 11.9167 8.61642 11.7959 8.83131 11.581C9.04619 11.3662 9.16691 11.0747 9.16691 10.7708C9.16691 10.4669 9.04619 10.1755 8.83131 9.96059C8.61642 9.74571 8.32497 9.62499 8.02108 9.62499C7.84334 9.62513 7.66808 9.66661 7.50914 9.74616C7.3502 9.8257 7.21195 9.94113 7.10531 10.0833H5.72941C5.54708 10.0833 5.37222 10.1558 5.2433 10.2847C5.11437 10.4136 5.04193 10.5885 5.04191 10.7708V11.9167H4.15121C4.13573 11.8868 4.11808 11.858 4.09839 11.8307C3.42226 10.913 3.19944 9.54188 3.21932 8.96076C3.2597 7.78411 4.07964 6.94158 4.99626 6.34772C5.91287 5.75387 6.82601 5.48924 6.82601 5.48924C6.96959 5.44821 7.0959 5.36154 7.18586 5.24235C7.27582 5.12316 7.32453 4.97793 7.32463 4.8286C7.32463 3.57135 7.62188 3.12349 7.8877 2.92902C8.02061 2.83179 8.19437 2.77564 8.39705 2.75088C8.49826 2.73852 8.60699 2.73434 8.72111 2.73656ZM13.2794 2.73656C13.3936 2.73435 13.5021 2.7385 13.6034 2.75088C13.8061 2.77564 13.9799 2.83179 14.1128 2.92902C14.3786 3.12349 14.6759 3.57135 14.6759 4.8286C14.676 4.97793 14.7247 5.12316 14.8146 5.24235C14.9046 5.36154 15.0309 5.44821 15.1745 5.48924C15.1745 5.48924 15.5489 5.60766 16.0419 5.8312V7.79165H14.8952C14.7885 7.64947 14.6503 7.53404 14.4913 7.45449C14.3324 7.37494 14.1571 7.33346 13.9794 7.33332C13.6755 7.33332 13.3841 7.45404 13.1692 7.66893C12.9543 7.88381 12.8336 8.17526 12.8336 8.47915C12.8336 8.78305 12.9543 9.07449 13.1692 9.28938C13.3841 9.50427 13.6755 9.62499 13.9794 9.62499C14.1571 9.62485 14.3324 9.58337 14.4913 9.50382C14.6503 9.42427 14.7885 9.30884 14.8952 9.16665H16.7294C16.9117 9.16664 17.0866 9.0942 17.2155 8.96527C17.3445 8.83634 17.4169 8.66148 17.4169 8.47915V6.64314C18.1531 7.21198 18.747 7.96568 18.7812 8.96076C18.801 9.54188 18.5782 10.913 17.9021 11.8307C17.8322 11.9256 17.7878 12.0368 17.7732 12.1537C17.7586 12.2707 17.7743 12.3894 17.8188 12.4985C17.9855 12.9067 18.1134 13.3302 18.1134 13.7992C18.1134 15.4177 17.4363 16.0982 16.733 16.5134C16.0297 16.9286 15.324 16.9753 15.324 16.9753C15.1487 16.9854 14.9839 17.0621 14.8634 17.1898C14.7429 17.3175 14.6758 17.4864 14.6759 17.6619C14.6759 18.5575 14.467 18.8289 14.1996 19.0065C13.9322 19.1841 13.4358 19.2607 12.8363 19.2661C12.4558 19.2695 12.1573 19.1623 11.9769 19.0154C11.7965 18.8686 11.6967 18.6988 11.6967 18.3709V15.3667C11.697 15.3545 11.697 15.3422 11.6967 15.33V15.125H15.3544C15.5367 15.125 15.7116 15.0525 15.8405 14.9236C15.9695 14.7947 16.0419 14.6198 16.0419 14.4375V13.0607C16.2336 12.9162 16.375 12.7151 16.4462 12.4859C16.5175 12.2567 16.5149 12.0109 16.439 11.7832C16.363 11.5555 16.2175 11.3574 16.0229 11.2169C15.8283 11.0764 15.5944 11.0005 15.3544 11C15.1142 11.0002 14.88 11.076 14.6852 11.2166C14.4904 11.3571 14.3446 11.5554 14.2686 11.7833C14.1926 12.0113 14.1902 12.2573 14.2616 12.4867C14.3331 12.7161 14.4749 12.9172 14.6669 13.0616V13.75H11.6967V7.11669C11.697 7.10445 11.697 7.09222 11.6967 7.07998V3.80541C11.6967 3.57053 11.8077 3.35308 12.0369 3.15103C12.2658 2.94915 12.6073 2.7982 12.9213 2.76162C13.045 2.74734 13.1651 2.73877 13.2794 2.73656Z" fill="#D9D9FF"/>
</svg>
