<svg width="22" height="22" viewBox="0 0 22 22" fill="none" xmlns="http://www.w3.org/2000/svg">
<path fill-rule="evenodd" clip-rule="evenodd" d="M13.5981 1.56269C13.726 1.53931 13.853 1.52823 13.9786 1.52777C14.5258 1.52686 15.0431 1.73875 15.4368 2.13292C15.8315 2.52662 16.0425 3.04392 16.0411 3.59117C16.0406 3.71675 16.03 3.84375 16.0071 3.97162C15.9342 4.37679 15.7229 4.76381 15.3957 5.0906L9.98698 10.4984C9.8229 10.6625 9.62022 10.7825 9.39884 10.8466L6.88696 11.5663C6.79942 11.5998 6.70606 11.6143 6.61393 11.6111C6.44802 11.6047 6.28435 11.5393 6.15739 11.4124C6.02997 11.285 5.96462 11.1204 5.95866 10.954C5.95545 10.8619 5.97042 10.7699 6.00342 10.6828L6.72314 8.17092C6.78731 7.94955 6.90775 7.74552 7.07137 7.58189L12.4792 2.17409C12.806 1.84684 13.193 1.63556 13.5981 1.56269ZM0.916992 8.17361C0.916992 6.78348 2.0477 5.65277 3.43783 5.65277H7.70426L6.42326 6.93378C6.40433 6.95271 6.38714 6.97294 6.36994 6.99318C6.36007 7.00479 6.3502 7.01641 6.34001 7.02777H3.43783C2.80624 7.02777 2.29199 7.54202 2.29199 8.17361V17.7986C2.29199 18.4302 2.80624 18.9444 3.43783 18.9444H18.5628C19.1944 18.9444 19.7087 18.4302 19.7087 17.7986V8.17361C19.7087 7.54202 19.1944 7.02777 18.5628 7.02777H14.7547L16.0438 5.73871C16.0593 5.72341 16.073 5.70685 16.0867 5.6903C16.0972 5.6776 16.1076 5.66491 16.119 5.65277H18.5628C19.9529 5.65277 21.0837 6.78348 21.0837 8.17361V17.7986C21.0837 19.1887 19.9529 20.3194 18.5628 20.3194H3.43783C2.0477 20.3194 0.916992 19.1887 0.916992 17.7986V8.17361ZM15.0215 8.5912C15.1525 8.46712 15.327 8.39949 15.5073 8.40289H17.799C17.9813 8.40291 18.1562 8.47535 18.2851 8.60428C18.414 8.7332 18.4865 8.90806 18.4865 9.09039V11.3821C18.4891 11.5642 18.4193 11.74 18.2924 11.8708C18.1655 12.0015 17.9919 12.0766 17.8097 12.0794C17.7867 12.0797 17.7637 12.0788 17.7408 12.0767C17.5675 12.062 17.4062 11.9821 17.2894 11.8532C17.1727 11.7243 17.1091 11.556 17.1115 11.3821V9.77789H15.5073C15.4912 9.77816 15.4751 9.77786 15.459 9.777C15.2788 9.76772 15.1095 9.68799 14.9876 9.55502C14.8657 9.42204 14.8009 9.24647 14.8072 9.06617C14.8136 8.88586 14.8905 8.71528 15.0215 8.5912ZM3.70837 14.1017C3.83526 13.9709 4.00886 13.8959 4.19104 13.893C4.28306 13.8916 4.37443 13.9087 4.45973 13.9432C4.54504 13.9777 4.62254 14.029 4.68766 14.094C4.75277 14.1591 4.80417 14.2365 4.83881 14.3218C4.87344 14.407 4.8906 14.4984 4.88928 14.5904V16.1946H6.49345C6.58455 16.1933 6.675 16.2101 6.75954 16.2441C6.84408 16.278 6.92103 16.3285 6.98591 16.3924C7.05079 16.4564 7.10231 16.5326 7.13747 16.6167C7.17263 16.7007 7.19074 16.7909 7.19074 16.8821C7.19074 16.9732 7.17263 17.0634 7.13747 17.1474C7.10231 17.2315 7.05079 17.3077 6.98591 17.3717C6.92103 17.4356 6.84408 17.4861 6.75954 17.52C6.675 17.554 6.58455 17.5708 6.49345 17.5696H4.20178C4.01945 17.5695 3.8446 17.4971 3.71567 17.3682C3.58674 17.2392 3.5143 17.0644 3.51428 16.8821V14.5904C3.51167 14.4082 3.58148 14.2324 3.70837 14.1017ZM17.7883 13.893C17.6061 13.8959 17.4325 13.9709 17.3056 14.1017C17.1787 14.2324 17.1089 14.4082 17.1115 14.5904V16.1946H15.5073C15.4162 16.1933 15.3258 16.2101 15.2412 16.2441C15.1567 16.278 15.0798 16.3285 15.0149 16.3924C14.95 16.4564 14.8985 16.5326 14.8633 16.6167C14.8282 16.7007 14.81 16.7909 14.81 16.8821C14.81 16.9732 14.8282 17.0634 14.8633 17.1474C14.8985 17.2315 14.95 17.3077 15.0149 17.3717C15.0798 17.4356 15.1567 17.4861 15.2412 17.52C15.3258 17.554 15.4162 17.5708 15.5073 17.5696H17.799C17.9813 17.5695 18.1562 17.4971 18.2851 17.3682C18.414 17.2392 18.4865 17.0644 18.4865 16.8821V14.5904C18.4878 14.4984 18.4707 14.407 18.436 14.3218C18.4014 14.2365 18.35 14.1591 18.2849 14.094C18.2198 14.029 18.1423 13.9777 18.057 13.9432C17.9716 13.9087 17.8803 13.8916 17.7883 13.893Z" fill="#D9D9FF"/>
</svg>
