<svg width="22" height="22" viewBox="0 0 22 22" fill="none" xmlns="http://www.w3.org/2000/svg">
<path d="M11 2.29883C10.4735 2.29883 9.94723 2.47008 9.51221 2.81266H9.51131L4.06055 7.10864C3.23391 7.7601 2.75 8.75554 2.75 9.80851V18.0988C2.75 18.9765 3.47648 19.703 4.35417 19.703H17.6458C18.5235 19.703 19.25 18.9765 19.25 18.0988V9.80851C19.25 8.75554 18.7661 7.7601 17.9395 7.10864V7.10775L12.4878 2.81266C12.0528 2.47008 11.5265 2.29883 11 2.29883ZM11 3.67025C11.2245 3.67025 11.4491 3.74485 11.6374 3.89315L17.089 8.18823C17.5861 8.57994 17.875 9.17574 17.875 9.80851V18.0988C17.875 18.234 17.7811 18.328 17.6458 18.328H4.35417C4.21894 18.328 4.125 18.234 4.125 18.0988V9.80851C4.125 9.17574 4.41394 8.57994 4.91097 8.18823L10.3626 3.89315C10.5509 3.74485 10.7755 3.67025 11 3.67025Z" fill="#D9D9FF"/>
<path d="M5.95801 11.4583C5.95801 11.2001 6.16629 11.0112 6.40053 11.0005C6.4786 10.9969 6.55969 11.0132 6.63672 11.0532L10.2933 13.1162C10.6237 13.2879 10.6241 13.7551 10.2942 13.9263L6.63762 15.9884C6.32904 16.1487 5.95801 15.9281 5.95801 15.5833V11.4583Z" fill="#D9D9FF"/>
<path d="M11.7637 11.6302C11.7637 11.282 12.0371 11 12.3748 11C12.7124 11 12.9859 11.282 12.9859 11.6302V15.4115C12.9859 15.7596 12.7124 16.0417 12.3748 16.0417C12.0371 16.0417 11.7637 15.7596 11.7637 15.4115V11.6302Z" fill="#D9D9FF"/>
<path d="M14.8192 11.6302C14.8192 11.282 15.0927 11 15.4303 11C15.768 11 16.0414 11.282 16.0414 11.6302V15.4115C16.0414 15.7596 15.768 16.0417 15.4303 16.0417C15.0927 16.0417 14.8192 15.7596 14.8192 15.4115V11.6302Z" fill="#D9D9FF"/>
</svg>
