<svg width="14" height="15" viewBox="0 0 14 15" fill="none" xmlns="http://www.w3.org/2000/svg">
<path d="M7.26204 0.00372806C7.12285 -0.0118637 6.98094 0.0216577 6.86252 0.100407C6.70502 0.205032 6.61111 0.378064 6.61111 0.562564V10.1821C5.90906 9.68362 4.94814 9.37502 3.88889 9.37502C1.74456 9.37502 0 10.6369 0 12.1875C0 13.7381 1.74456 15 3.88889 15C6.03322 15 7.77778 13.7381 7.77778 12.1875V4.74907L13.2116 6.71415C13.3905 6.77902 13.5907 6.75507 13.7486 6.64969C13.9061 6.54507 14 6.37204 14 6.18754V4.11186C14 3.10162 13.3413 2.18477 12.3601 1.82965L7.39952 0.0359545C7.3548 0.0197358 7.30844 0.00892532 7.26204 0.00372806Z" fill="#000033" fill-opacity="0.2"/>
</svg>
