<svg width="25" height="26" viewBox="0 0 25 26" fill="none" xmlns="http://www.w3.org/2000/svg">
<path d="M3.01974 0C1.35486 0 0 1.35486 0 3.01974V17.1118C0 18.7767 1.35486 20.1316 3.01974 20.1316H9.39474V18.1184H3.01974C2.46478 18.1184 2.01316 17.6668 2.01316 17.1118V3.01974C2.01316 2.46478 2.46478 2.01316 3.01974 2.01316H10.4013C10.9563 2.01316 11.4079 2.46478 11.4079 3.01974V4.71834C11.9978 4.33919 12.6836 4.09972 13.4211 4.04335V3.01974C13.4211 1.35486 12.0662 0 10.4013 0H3.01974ZM13.7566 5.36842C12.1008 5.36842 10.7368 6.73234 10.7368 8.38816V22.4803C10.7368 24.1361 12.1008 25.5 13.7566 25.5H21.1382C22.794 25.5 24.1579 24.1361 24.1579 22.4803V8.38816C24.1579 6.73234 22.794 5.36842 21.1382 5.36842H13.7566ZM13.7566 7.38158H21.1382C21.7062 7.38158 22.1447 7.82011 22.1447 8.38816V22.4803C22.1447 23.0483 21.7062 23.4868 21.1382 23.4868H13.7566C13.1885 23.4868 12.75 23.0483 12.75 22.4803V8.38816C12.75 7.82011 13.1885 7.38158 13.7566 7.38158ZM5.70395 14.0921C5.57056 14.0902 5.43814 14.1149 5.31436 14.1646C5.19058 14.2143 5.07792 14.2882 4.98293 14.3818C4.88794 14.4755 4.81251 14.5871 4.76103 14.7102C4.70954 14.8332 4.68303 14.9653 4.68303 15.0987C4.68303 15.2321 4.70954 15.3641 4.76103 15.4872C4.81251 15.6103 4.88794 15.7219 4.98293 15.8155C5.07792 15.9092 5.19058 15.983 5.31436 16.0328C5.43814 16.0825 5.57056 16.1071 5.70395 16.1053H7.71711C7.85049 16.1071 7.98292 16.0825 8.10669 16.0328C8.23047 15.983 8.34313 15.9092 8.43812 15.8155C8.53311 15.7219 8.60854 15.6103 8.66002 15.4872C8.71151 15.3641 8.73802 15.2321 8.73802 15.0987C8.73802 14.9653 8.71151 14.8332 8.66002 14.7102C8.60854 14.5871 8.53311 14.4755 8.43812 14.3818C8.34313 14.2882 8.23047 14.2143 8.10669 14.1646C7.98292 14.1149 7.85049 14.0902 7.71711 14.0921H5.70395ZM16.4408 19.4605C16.3074 19.4586 16.175 19.4833 16.0512 19.533C15.9274 19.5828 15.8148 19.6566 15.7198 19.7503C15.6248 19.8439 15.5494 19.9555 15.4979 20.0786C15.4464 20.2016 15.4199 20.3337 15.4199 20.4671C15.4199 20.6005 15.4464 20.7326 15.4979 20.8556C15.5494 20.9787 15.6248 21.0903 15.7198 21.184C15.8148 21.2776 15.9274 21.3514 16.0512 21.4012C16.175 21.4509 16.3074 21.4756 16.4408 21.4737H18.4539C18.5873 21.4756 18.7198 21.4509 18.8435 21.4012C18.9673 21.3514 19.08 21.2776 19.175 21.184C19.27 21.0903 19.3454 20.9787 19.3969 20.8556C19.4483 20.7326 19.4749 20.6005 19.4749 20.4671C19.4749 20.3337 19.4483 20.2016 19.3969 20.0786C19.3454 19.9555 19.27 19.8439 19.175 19.7503C19.08 19.6566 18.9673 19.5828 18.8435 19.533C18.7198 19.4833 18.5873 19.4586 18.4539 19.4605H16.4408Z" fill="#000033" fill-opacity="0.2"/>
</svg>
