<svg width="18" height="10" viewBox="0 0 18 10" fill="none" xmlns="http://www.w3.org/2000/svg">
<path d="M17.3425 0.000179268C17.1729 0.00418498 17.0117 0.0751388 16.8942 0.197549L8.99861 8.09316L1.103 0.197549C1.04313 0.135895 0.971501 0.0868813 0.892349 0.0534104C0.813197 0.0199394 0.728133 0.00269162 0.642194 0.0026882C0.51437 0.00271938 0.389462 0.0408861 0.283451 0.112305C0.17744 0.183725 0.0951468 0.285149 0.0471018 0.4036C-0.000943306 0.522051 -0.0125559 0.652143 0.0137497 0.777231C0.0400553 0.90232 0.103083 1.01672 0.194768 1.10578L8.54449 9.45551C8.66495 9.57591 8.82829 9.64355 8.99861 9.64355C9.16892 9.64355 9.33227 9.57591 9.45272 9.45551L17.8024 1.10578C17.8958 1.01614 17.96 0.900361 17.9864 0.773633C18.0129 0.646905 18.0004 0.51514 17.9507 0.395612C17.901 0.276083 17.8163 0.174369 17.7078 0.103806C17.5992 0.0332422 17.4719 -0.00287848 17.3425 0.000179268Z" fill="#000033" fill-opacity="0.2"/>
</svg>
