<svg width="6" height="18" viewBox="0 0 6 18" fill="none" xmlns="http://www.w3.org/2000/svg">
<path d="M0 15.4C0 16.8291 1.17137 18 2.6 18C4.02878 18 5.2 16.8288 5.2 15.4C5.2 13.9712 4.02878 12.8 2.6 12.8C1.17122 12.8 0 13.9712 0 15.4ZM0 9C0 10.4291 1.17137 11.6 2.6 11.6C4.02878 11.6 5.2 10.4288 5.2 9C5.2 7.57122 4.02878 6.4 2.6 6.4C1.17122 6.4 0 7.57122 0 9ZM0 2.6C0 4.02906 1.17137 5.2 2.6 5.2C4.02878 5.2 5.2 4.02878 5.2 2.6C5.2 1.17094 4.02863 0 2.6 0C1.17122 0 0 1.17122 0 2.6ZM1.2 15.4C1.2 14.62 1.81998 14 2.6 14C3.38003 14 4 14.62 4 15.4C4 16.18 3.38003 16.8 2.6 16.8C1.81983 16.8 1.2 16.1805 1.2 15.4ZM1.2 9C1.2 8.21998 1.81998 7.6 2.6 7.6C3.38003 7.6 4 8.21998 4 9C4 9.78002 3.38003 10.4 2.6 10.4C1.81983 10.4 1.2 9.78054 1.2 9ZM1.2 2.6C1.2 1.81997 1.81998 1.2 2.6 1.2C3.38017 1.2 4 1.81946 4 2.6C4 3.38002 3.38003 4 2.6 4C1.81983 4 1.2 3.38054 1.2 2.6Z" fill="#D9D9FF"/>
</svg>
