<svg width="27" height="30" viewBox="0 0 27 30" fill="none" xmlns="http://www.w3.org/2000/svg">
<path d="M13.8283 0.00102944C13.5384 0.0131474 13.2644 0.136801 13.0635 0.346165C12.8626 0.55553 12.7503 0.834416 12.7502 1.12458V8.44158C12.7308 8.56092 12.7308 8.6826 12.7502 8.80194V19.7093C12.7299 19.6935 12.712 19.6751 12.6916 19.6595C11.3186 18.6096 9.49302 17.9998 7.50011 17.9998C5.5072 17.9998 3.68163 18.6096 2.30863 19.6595C0.935622 20.7095 0 22.2562 0 23.9999C0 25.7437 0.935622 27.2904 2.30863 28.3403C3.68163 29.3903 5.5072 30 7.50011 30C9.49302 30 11.3186 29.3903 12.6916 28.3403C14.0139 27.3291 14.9211 25.8553 14.987 24.1903C14.9876 24.185 14.988 24.1796 14.9885 24.1742C14.9969 24.1165 15.0008 24.0582 15.0002 23.9999V10.2478L25.4799 14.178C25.6501 14.2419 25.8333 14.2636 26.0137 14.2412C26.1941 14.2188 26.3665 14.1531 26.5159 14.0495C26.6654 13.946 26.7875 13.8078 26.8719 13.6467C26.9563 13.4857 27.0004 13.3066 27.0004 13.1248V8.22332C27.0004 6.19479 25.7372 4.37109 23.8377 3.6588L14.2707 0.071343C14.1295 0.0184909 13.979 -0.00542075 13.8283 0.00102944ZM15.0002 2.74765L23.0467 5.76527C24.0753 6.151 24.7504 7.1243 24.7504 8.22332V11.5017L15.0002 7.84538V2.74765ZM7.50011 20.2499C9.02807 20.2499 10.3905 20.7322 11.3249 21.4467C12.2592 22.1611 12.7502 23.0512 12.7502 23.9999C12.7502 24.9486 12.2592 25.8387 11.3249 26.5532C10.3905 27.2677 9.02807 27.75 7.50011 27.75C5.97215 27.75 4.60967 27.2677 3.67535 26.5532C2.74102 25.8387 2.25003 24.9486 2.25003 23.9999C2.25003 23.0512 2.74102 22.1611 3.67535 21.4467C4.60967 20.7322 5.97215 20.2499 7.50011 20.2499Z" fill="white"/>
</svg>
