<svg id="Filled_Line" height="512" viewBox="0 0 24 24" width="512" xmlns="http://www.w3.org/2000/svg"><circle cx="12" cy="12" fill="#edebea" r="10"/><circle cx="12" cy="12" fill="#e63946" r="3"/><path d="m12 22.75c-5.9277 0-10.75-4.8223-10.75-10.75s4.8223-10.75 10.75-10.75 10.75 4.8223 10.75 10.75-4.8223 10.75-10.75 10.75zm0-20c-5.1006 0-9.25 4.1494-9.25 9.25s4.1494 9.25 9.25 9.25 9.25-4.1494 9.25-9.25-4.1494-9.25-9.25-9.25zm0 13c-2.0674 0-3.75-1.6821-3.75-3.75s1.6826-3.75 3.75-3.75 3.75 1.6821 3.75 3.75-1.6826 3.75-3.75 3.75zm0-6c-1.2402 0-2.25 1.0093-2.25 2.25s1.0098 2.25 2.25 2.25 2.25-1.0093 2.25-2.25-1.0098-2.25-2.25-2.25z" fill="#050819"/></svg>