<svg fill="none" height="64" viewBox="0 0 64 64" width="64" xmlns="http://www.w3.org/2000/svg"><path d="m22 26c0-2.2091 1.7909-4 4-4h12c2.2091 0 4 1.7909 4 4v12c0 2.2091-1.7909 4-4 4h-12c-2.2091 0-4-1.7909-4-4z" fill="#fa1228"/><g clip-rule="evenodd" fill="#000" fill-rule="evenodd"><path d="m26 20c-3.3137 0-6 2.6863-6 6v12c0 3.3137 2.6863 6 6 6h12c3.3137 0 6-2.6863 6-6v-12c0-3.3137-2.6863-6-6-6zm-2 6c0-1.1046.8954-2 2-2h12c1.1046 0 2 .8954 2 2v12c0 1.1046-.8954 2-2 2h-12c-1.1046 0-2-.8954-2-2z"/><path d="m32 2c-16.5685 0-30 13.4315-30 30s13.4315 30 30 30 30-13.4315 30-30-13.4315-30-30-30zm-26 30c0-14.3594 11.6406-26 26-26s26 11.6406 26 26-11.6406 26-26 26-26-11.6406-26-26z"/></g></svg>