<svg width="18" height="17" viewBox="0 0 18 17" fill="none" xmlns="http://www.w3.org/2000/svg">
<path d="M10.7314 0.00957127C10.627 -0.00395772 10.5192 -0.00320263 10.4124 0.012208C10.1988 0.0430289 9.98935 0.133669 9.81826 0.289063C9.81561 0.291387 9.81297 0.29373 9.81035 0.296095L6.00293 3.8627C5.87753 3.9802 5.71314 4.04551 5.5415 4.04551H2.025C0.914625 4.04551 0 4.96013 0 6.07051V10.1205C0 11.2309 0.914625 12.1455 2.025 12.1455H5.5415C5.71314 12.1455 5.87753 12.2108 6.00293 12.3283L9.81035 15.8949C9.81297 15.8973 9.81561 15.8996 9.81826 15.902C10.1604 16.2127 10.6571 16.2639 11.0303 16.0988C11.4034 15.9337 11.7 15.5319 11.7 15.0696V1.12139C11.7 0.659095 11.4034 0.257289 11.0303 0.0921885C10.937 0.0509133 10.8359 0.0231002 10.7314 0.00957127ZM10.35 1.63994V14.5511L6.92578 11.3431C6.55078 10.9917 6.05566 10.7955 5.5415 10.7955H2.025C1.64408 10.7955 1.35 10.5014 1.35 10.1205V6.07051C1.35 5.68958 1.64408 5.39551 2.025 5.39551H5.5415C6.05566 5.39551 6.55078 5.19934 6.92578 4.84795L10.35 1.63994ZM15.8616 2.50303C15.7388 2.50225 15.6181 2.53499 15.5125 2.59772C15.407 2.66045 15.3205 2.75079 15.2625 2.85901C15.2044 2.96724 15.177 3.08925 15.1831 3.2119C15.1893 3.33455 15.2288 3.45321 15.2974 3.55508C16.1511 4.86254 16.65 6.41708 16.65 8.09551C16.65 9.77394 16.1511 11.3285 15.2974 12.6359C15.2458 12.7101 15.2096 12.7939 15.191 12.8822C15.1724 12.9706 15.1717 13.0619 15.189 13.1505C15.2063 13.2392 15.2412 13.3235 15.2917 13.3984C15.3421 13.4733 15.4071 13.5373 15.4828 13.5867C15.5584 13.636 15.6432 13.6697 15.7321 13.6857C15.821 13.7017 15.9122 13.6997 16.0003 13.6798C16.0884 13.6599 16.1716 13.6225 16.245 13.5699C16.3184 13.5172 16.3805 13.4504 16.4276 13.3733C17.418 11.8566 18 10.0423 18 8.09551C18 6.14874 17.418 4.33442 16.4276 2.81768C16.3672 2.72199 16.2837 2.64303 16.1848 2.58805C16.0859 2.53307 15.9748 2.50383 15.8616 2.50303ZM13.9553 4.61152C13.8382 4.60993 13.7228 4.6388 13.6202 4.69531C13.5177 4.75181 13.4317 4.834 13.3705 4.93381C13.3093 5.03363 13.2752 5.14763 13.2714 5.26463C13.2676 5.38163 13.2943 5.4976 13.3488 5.60117C13.7316 6.35297 13.95 7.1966 13.95 8.09551C13.95 8.99442 13.7316 9.83805 13.3488 10.5898C13.3051 10.6691 13.2778 10.7563 13.2685 10.8464C13.2592 10.9364 13.268 11.0274 13.2946 11.1139C13.3212 11.2005 13.3648 11.2808 13.4231 11.3501C13.4813 11.4194 13.5528 11.4763 13.6335 11.5173C13.7141 11.5584 13.8022 11.5829 13.8925 11.5893C13.9828 11.5956 14.0735 11.5837 14.1591 11.5544C14.2447 11.525 14.3235 11.4787 14.3909 11.4182C14.4582 11.3578 14.5127 11.2844 14.5512 11.2024C15.0252 10.2712 15.3 9.2144 15.3 8.09551C15.3 6.97662 15.0252 5.91978 14.5512 4.98858C14.4962 4.87691 14.4115 4.7826 14.3064 4.71606C14.2012 4.64952 14.0797 4.61334 13.9553 4.61152Z" fill="#5A7AFA"/>
</svg>
