<svg width="18" height="18" viewBox="0 0 18 18" fill="none" xmlns="http://www.w3.org/2000/svg">
<path d="M2.75 0C1.24011 0 0 1.24011 0 2.75V15.25C0 16.7599 1.24011 18 2.75 18H15.25C16.7599 18 18 16.7599 18 15.25V2.75C18 1.24011 16.7599 0 15.25 0H2.75ZM2.75 1.5H15.25C15.9491 1.5 16.5 2.05089 16.5 2.75V15.25C16.5 15.9491 15.9491 16.5 15.25 16.5H2.75C2.05089 16.5 1.5 15.9491 1.5 15.25V2.75C1.5 2.05089 2.05089 1.5 2.75 1.5ZM4.25 3C4.15062 2.99859 4.05194 3.01696 3.95972 3.05402C3.86749 3.09108 3.78355 3.1461 3.71277 3.21588C3.642 3.28566 3.58579 3.36882 3.54743 3.46051C3.50907 3.5522 3.48932 3.65061 3.48932 3.75C3.48932 3.84939 3.50907 3.9478 3.54743 4.03949C3.58579 4.13118 3.642 4.21434 3.71277 4.28412C3.78355 4.3539 3.86749 4.40892 3.95972 4.44598C4.05194 4.48304 4.15062 4.50141 4.25 4.5H13.75C13.8494 4.50141 13.9481 4.48304 14.0403 4.44598C14.1325 4.40892 14.2164 4.3539 14.2872 4.28412C14.358 4.21434 14.4142 4.13118 14.4526 4.03949C14.4909 3.9478 14.5107 3.84939 14.5107 3.75C14.5107 3.65061 14.4909 3.5522 14.4526 3.46051C14.4142 3.36882 14.358 3.28566 14.2872 3.21588C14.2164 3.1461 14.1325 3.09108 14.0403 3.05402C13.9481 3.01696 13.8494 2.99859 13.75 3H4.25ZM4.25 6.5C4.15062 6.49859 4.05194 6.51696 3.95972 6.55402C3.86749 6.59108 3.78355 6.6461 3.71277 6.71588C3.642 6.78566 3.58579 6.86882 3.54743 6.96051C3.50907 7.0522 3.48932 7.15061 3.48932 7.25C3.48932 7.34939 3.50907 7.4478 3.54743 7.53949C3.58579 7.63118 3.642 7.71434 3.71277 7.78412C3.78355 7.8539 3.86749 7.90892 3.95972 7.94598C4.05194 7.98304 4.15062 8.00141 4.25 8H10.75C10.8494 8.00141 10.9481 7.98304 11.0403 7.94598C11.1325 7.90892 11.2164 7.8539 11.2872 7.78412C11.358 7.71434 11.4142 7.63118 11.4526 7.53949C11.4909 7.4478 11.5107 7.34939 11.5107 7.25C11.5107 7.15061 11.4909 7.0522 11.4526 6.96051C11.4142 6.86882 11.358 6.78566 11.2872 6.71588C11.2164 6.6461 11.1325 6.59108 11.0403 6.55402C10.9481 6.51696 10.8494 6.49859 10.75 6.5H4.25ZM4.25 10C4.15062 9.9986 4.05194 10.017 3.95972 10.054C3.86749 10.0911 3.78355 10.1461 3.71277 10.2159C3.642 10.2857 3.58579 10.3688 3.54743 10.4605C3.50907 10.5522 3.48932 10.6506 3.48932 10.75C3.48932 10.8494 3.50907 10.9478 3.54743 11.0395C3.58579 11.1312 3.642 11.2143 3.71277 11.2841C3.78355 11.3539 3.86749 11.4089 3.95972 11.446C4.05194 11.483 4.15062 11.5014 4.25 11.5H13.75C13.8494 11.5014 13.9481 11.483 14.0403 11.446C14.1325 11.4089 14.2164 11.3539 14.2872 11.2841C14.358 11.2143 14.4142 11.1312 14.4526 11.0395C14.4909 10.9478 14.5107 10.8494 14.5107 10.75C14.5107 10.6506 14.4909 10.5522 14.4526 10.4605C14.4142 10.3688 14.358 10.2857 14.2872 10.2159C14.2164 10.1461 14.1325 10.0911 14.0403 10.054C13.9481 10.017 13.8494 9.9986 13.75 10H4.25ZM4.25 13.5C4.15062 13.4986 4.05194 13.517 3.95972 13.554C3.86749 13.5911 3.78355 13.6461 3.71277 13.7159C3.642 13.7857 3.58579 13.8688 3.54743 13.9605C3.50907 14.0522 3.48932 14.1506 3.48932 14.25C3.48932 14.3494 3.50907 14.4478 3.54743 14.5395C3.58579 14.6312 3.642 14.7143 3.71277 14.7841C3.78355 14.8539 3.86749 14.9089 3.95972 14.946C4.05194 14.983 4.15062 15.0014 4.25 15H10.75C10.8494 15.0014 10.9481 14.983 11.0403 14.946C11.1325 14.9089 11.2164 14.8539 11.2872 14.7841C11.358 14.7143 11.4142 14.6312 11.4526 14.5395C11.4909 14.4478 11.5107 14.3494 11.5107 14.25C11.5107 14.1506 11.4909 14.0522 11.4526 13.9605C11.4142 13.8688 11.358 13.7857 11.2872 13.7159C11.2164 13.6461 11.1325 13.5911 11.0403 13.554C10.9481 13.517 10.8494 13.4986 10.75 13.5H4.25Z" fill="#5A7AFA"/>
</svg>
