<svg width="18" height="10" viewBox="0 0 18 10" fill="none" xmlns="http://www.w3.org/2000/svg">
<path d="M0.657522 9.64338C0.827145 9.63937 0.988295 9.56842 1.10578 9.44601L9.00139 1.5504L16.897 9.44601C16.9569 9.50766 17.0285 9.55667 17.1077 9.59014C17.1868 9.62362 17.2719 9.64086 17.3578 9.64087C17.4856 9.64084 17.6105 9.60267 17.7165 9.53125C17.8226 9.45983 17.9049 9.35841 17.9529 9.23995C18.0009 9.1215 18.0126 8.99141 17.9863 8.86632C17.9599 8.74124 17.8969 8.62684 17.8052 8.53777L9.45551 0.188049C9.33505 0.067643 9.17171 3.63282e-06 9.00139 3.64771e-06C8.83107 3.6626e-06 8.66773 0.067643 8.54727 0.188049L0.197552 8.53777C0.104151 8.62742 0.0400161 8.7432 0.0135574 8.86992C-0.0129014 8.99665 -0.000448272 9.12842 0.0492782 9.24794C0.0990066 9.36747 0.183691 9.46919 0.292231 9.53975C0.40077 9.61031 0.528097 9.64643 0.657522 9.64338Z" fill="#000033" fill-opacity="0.2"/>
</svg>
