<svg width="23" height="18" viewBox="0 0 23 18" fill="none" xmlns="http://www.w3.org/2000/svg">
<path d="M2.91176 0C1.31306 0 0 1.31306 0 2.91176V15.0882C0 16.6869 1.31306 18 2.91176 18H19.3235C20.9222 18 22.2353 16.6869 22.2353 15.0882V2.91176C22.2353 1.31306 20.9222 0 19.3235 0H2.91176ZM2.91176 1.58824H19.3235C20.0638 1.58824 20.6471 2.17153 20.6471 2.91176V15.0882C20.6471 15.8285 20.0638 16.4118 19.3235 16.4118H2.91176C2.17153 16.4118 1.58824 15.8285 1.58824 15.0882V2.91176C1.58824 2.17153 2.17153 1.58824 2.91176 1.58824ZM9.51597 5.29412C9.33458 5.29643 9.15423 5.34488 8.99276 5.43991C8.66929 5.6305 8.47059 5.97812 8.47059 6.35294V11.6471C8.47059 12.0219 8.66929 12.3695 8.99276 12.5601C9.15794 12.6575 9.34359 12.7059 9.52941 12.7059C9.70624 12.7059 9.88343 12.6609 10.0433 12.5725L14.808 9.92544C15.1442 9.73855 15.3529 9.38488 15.3529 9C15.3529 8.61512 15.1442 8.26145 14.808 8.07456L10.0433 5.42751C9.87946 5.33645 9.69736 5.2918 9.51597 5.29412Z" fill="#5A7AFA"/>
</svg>
