<svg width="18" height="15" viewBox="0 0 18 15" fill="none" xmlns="http://www.w3.org/2000/svg">
<path d="M2.475 0C1.1161 0 0 1.1161 0 2.475V5.175V7.875V11.925C0 13.2839 1.1161 14.4 2.475 14.4H15.525C16.8839 14.4 18 13.2839 18 11.925V7.875V5.175V2.475C18 1.1161 16.8839 0 15.525 0H2.475ZM2.475 1.35H15.525C16.1542 1.35 16.65 1.8458 16.65 2.475V2.97598C16.3115 2.80111 15.9296 2.7 15.525 2.7H2.475C2.07036 2.7 1.68853 2.80111 1.35 2.97598V2.475C1.35 1.8458 1.8458 1.35 2.475 1.35ZM2.475 4.05H15.525C16.1542 4.05 16.65 4.5458 16.65 5.175V5.67598C16.3115 5.50111 15.9296 5.4 15.525 5.4H11.7817C11.0808 5.4 10.4912 5.87835 10.2806 6.50566C10.1012 7.03844 9.6012 7.425 9 7.425C8.3988 7.425 7.8993 7.03815 7.72031 6.50566C7.50932 5.87939 6.92004 5.4 6.21914 5.4H2.475C2.07036 5.4 1.68853 5.50111 1.35 5.67598V5.175C1.35 4.5458 1.8458 4.05 2.475 4.05ZM2.475 6.75H6.21914C6.31564 6.75 6.39692 6.8066 6.44062 6.93633C6.80096 8.00725 7.81678 8.775 9 8.775C10.1835 8.775 11.1996 8.00735 11.5603 6.93633V6.93545C11.6035 6.80679 11.6852 6.75 11.7817 6.75H15.525C16.1542 6.75 16.65 7.2458 16.65 7.875V11.925C16.65 12.5542 16.1542 13.05 15.525 13.05H2.475C1.8458 13.05 1.35 12.5542 1.35 11.925V7.875C1.35 7.2458 1.8458 6.75 2.475 6.75Z" fill="#A2A2B5"/>
</svg>
